<svg xmlns="http://www.w3.org/2000/svg" xmlns:xlink="http://www.w3.org/1999/xlink" width="29.75" height="21.946" viewBox="0 0 29.75 21.946">
  <defs>
    <clipPath id="a" transform="translate(0 0)">
      <rect width="29.75" height="21.946" fill="none"/>
    </clipPath>
  </defs>
  <title>arrow-white</title>
  <g clip-path="url(#a)">
    <path d="M1,11.946H26.5l-7.49,8.33a1,1,0,1,0,1.48,1.34l9-10a1.075,1.075,0,0,0,.16-0.25v-0.05a0.418,0.418,0,0,0,0-.1,0.723,0.723,0,0,0,.1-0.27v-0.1a1.174,1.174,0,0,0-.08-0.32,0.9,0.9,0,0,0-.16-0.24l-9-10a1,1,0,0,0-1.48,1.34l7.47,8.32H1a1,1,0,0,0,0,2" transform="translate(0 0)" fill="#fff"/>
  </g>
</svg>
