<?xml version="1.0" standalone="no"?>
<!DOCTYPE svg PUBLIC "-//W3C//DTD SVG 20010904//EN"
 "http://www.w3.org/TR/2001/REC-SVG-20010904/DTD/svg10.dtd">
<svg version="1.0" xmlns="http://www.w3.org/2000/svg"
 width="260.000000pt" height="260.000000pt" viewBox="0 0 260.000000 260.000000"
 preserveAspectRatio="xMidYMid meet">
<metadata>
Created by potrace 1.11, written by Peter Selinger 2001-2013
</metadata>
<g transform="translate(0.000000,260.000000) scale(0.100000,-0.100000)"
fill="#000000" stroke="none">
<path d="M1763 2367 c-29 -16 -76 -62 -148 -142 -33 -36 -84 -92 -113 -123
-33 -35 -49 -58 -41 -61 23 -7 58 -49 65 -77 11 -42 -11 -131 -62 -251 -24
-60 -50 -117 -56 -127 -9 -16 -6 -23 12 -38 23 -18 23 -22 25 -256 1 -225 2
-240 25 -290 20 -47 22 -58 12 -86 -15 -41 -15 -46 1 -46 34 0 74 -67 148
-245 18 -44 41 -93 51 -110 10 -16 18 -47 18 -68 0 -52 26 -104 55 -111 13 -3
30 -9 39 -12 13 -5 16 2 16 44 0 28 -5 63 -11 79 -6 15 -13 59 -15 97 -2 55
-7 71 -24 83 -26 19 -50 65 -50 100 0 15 -12 46 -25 68 -14 22 -25 51 -25 65
0 14 -7 38 -15 54 -17 33 -20 72 -5 81 6 3 10 16 10 28 0 11 12 34 27 49 21
22 25 31 14 37 -17 11 -17 12 -2 40 10 19 10 25 1 31 -25 15 29 21 57 6 25
-12 33 -12 63 0 19 8 37 20 41 26 9 13 -67 135 -96 154 -22 14 -22 15 -4 66 9
28 26 59 37 67 11 9 18 23 17 31 -2 8 -6 31 -9 50 -4 19 -9 42 -11 50 -2 8 -7
29 -10 45 -2 17 -10 56 -16 88 -5 33 -12 73 -14 90 -2 18 -6 58 -10 89 -5 48
-1 74 25 160 41 134 40 132 47 211 6 72 0 79 -44 54z"/>
<path d="M2123 2359 c-33 -10 -73 -51 -73 -77 0 -8 -12 -40 -27 -71 -21 -43
-28 -73 -30 -127 -2 -75 18 -173 43 -212 9 -13 17 -51 19 -85 2 -45 11 -79 34
-124 17 -34 31 -71 31 -82 0 -11 4 -31 9 -44 10 -25 22 -82 23 -107 0 -8 4
-33 8 -55 21 -105 40 -551 24 -576 -3 -5 -8 -7 -12 -5 -14 8 -39 -20 -52 -58
-7 -22 -12 -78 -12 -125 1 -47 1 -119 2 -159 0 -60 3 -74 18 -78 9 -3 25 -10
34 -15 10 -5 29 -9 42 -9 14 0 27 -4 30 -9 3 -5 18 -12 33 -16 15 -3 38 -17
51 -31 15 -14 36 -24 53 -24 41 0 57 38 48 110 -20 152 -22 200 -8 200 10 0
15 13 15 38 1 36 10 67 44 147 82 196 115 421 79 546 -7 24 -13 95 -14 158 -1
106 -2 114 -24 132 -34 28 -57 24 -64 -9 -7 -34 1 -154 14 -202 13 -51 11 -86
-6 -100 -12 -10 -16 -9 -20 6 -3 11 -19 45 -35 76 -20 37 -30 71 -30 100 0 24
-4 48 -9 53 -5 6 -11 51 -14 101 -4 51 -14 112 -23 135 -20 50 -32 235 -15
225 10 -6 14 -26 25 -101 8 -61 18 -83 39 -89 32 -8 36 4 20 59 -8 28 -15 94
-16 148 -2 71 -6 100 -16 106 -13 9 -18 101 -6 121 7 12 -67 80 -87 80 -11 0
-18 8 -18 19 0 32 -64 47 -127 30z"/>
<path d="M905 2307 c-26 -26 -30 -39 -31 -86 -1 -37 -11 -78 -28 -119 -59
-138 -68 -195 -73 -477 -3 -143 -9 -262 -14 -265 -5 -3 -9 -43 -10 -89 -1 -62
-5 -84 -16 -88 -12 -5 -14 -37 -12 -187 1 -149 -1 -186 -15 -211 -9 -17 -12
-33 -6 -39 17 -17 61 4 82 39 13 24 27 35 43 35 32 0 44 -19 49 -79 5 -57 19
-81 46 -81 33 0 44 27 41 108 -1 42 -4 109 -5 147 -1 45 4 86 14 115 9 25 16
61 15 80 -2 30 1 35 20 35 l23 0 1 -315 c1 -303 6 -403 20 -459 7 -26 47 -54
63 -45 13 8 9 47 -8 102 -18 54 -13 95 8 74 7 -7 20 -12 30 -12 21 0 19 -20
21 259 2 181 -1 219 -15 250 -13 29 -15 56 -12 132 5 84 3 102 -17 147 -13 29
-25 52 -28 52 -3 0 -6 15 -5 32 1 18 -5 51 -13 72 -7 22 -15 59 -17 83 -2 24
-8 49 -14 55 -7 7 -12 20 -12 30 0 10 -5 18 -10 18 -8 0 -9 53 -6 163 5 183
12 241 32 258 14 12 19 76 8 117 -4 13 -14 22 -25 22 -24 0 -25 28 -2 68 14
25 15 33 4 45 -11 14 -17 11 -47 -22 -19 -21 -34 -45 -34 -52 0 -12 -2 -12 -9
0 -6 9 -4 22 5 36 42 64 10 104 -41 52z"/>
<path d="M209 2298 c-9 -7 -33 -26 -53 -43 -21 -16 -49 -50 -64 -74 l-25 -43
2 -317 c5 -606 5 -624 20 -651 8 -14 20 -29 27 -35 7 -5 15 -43 19 -83 7 -84
18 -118 48 -150 22 -23 22 -30 23 -315 0 -264 4 -333 20 -359 11 -17 22 3 29
49 4 27 13 62 21 78 24 52 83 302 82 349 -1 59 -17 83 -45 68 -19 -10 -21 -7
-34 48 -8 32 -12 82 -10 112 3 29 7 43 9 31 2 -17 10 -23 28 -23 37 0 35 -22
47 480 3 94 7 120 23 145 17 26 19 48 19 175 0 82 6 162 12 185 12 39 12 67
-2 153 -8 54 -65 181 -92 205 -26 23 -83 31 -104 15z m68 -1213 c0 -8 -4 -12
-9 -9 -5 3 -6 10 -3 15 9 13 12 11 12 -6z m-1 -49 c0 -14 -3 -23 -7 -20 -6 3
-6 22 0 42 3 10 7 -2 7 -22z"/>
<path d="M910 405 c-37 -45 -14 -150 30 -138 18 5 20 13 20 73 0 53 -4 69 -16
74 -21 8 -20 8 -34 -9z"/>
</g>
</svg>
