<svg xmlns="http://www.w3.org/2000/svg" xmlns:xlink="http://www.w3.org/1999/xlink" width="220" height="70" viewBox="0 0 178.065 34.266">

  <g>
    <g>
      <path class="word" d="M44.173,25.265a0.527,0.527,0,0,1-.154-0.391V9.4a0.592,0.592,0,0,1,.142-0.415,0.521,0.521,0,0,1,.4-0.155h1.114a0.6,0.6,0,0,1,.593.357l5.048,9.692L56.41,9.187a0.613,0.613,0,0,1,.57-0.357h1.113a0.521,0.521,0,0,1,.4.155,0.588,0.588,0,0,1,.143.415V24.874a0.528,0.528,0,0,1-.546.545H57a0.487,0.487,0,0,1-.379-0.154,0.552,0.552,0,0,1-.142-0.391V13.1l-4.053,7.844a0.79,0.79,0,0,1-.758.5H50.957a0.821,0.821,0,0,1-.759-0.5L46.176,13.1V24.874a0.527,0.527,0,0,1-.546.545H44.564a0.524,0.524,0,0,1-.391-0.154" transform="translate(0.004 0.008)" fill="#fff"/>
      <path class="word" d="M62.95,25.265a0.552,0.552,0,0,1-.142-0.391V9.4a0.587,0.587,0,0,1,.142-0.415,0.492,0.492,0,0,1,.379-0.155H73.07a0.532,0.532,0,0,1,.568.57v0.853a0.49,0.49,0,0,1-.154.379,0.583,0.583,0,0,1-.414.142H64.988v5.285H72.55a0.531,0.531,0,0,1,.568.569v0.806a0.533,0.533,0,0,1-.154.391,0.565,0.565,0,0,1-.414.154H64.989v5.475h8.272a0.531,0.531,0,0,1,.568.568v0.853a0.511,0.511,0,0,1-.166.391,0.563,0.563,0,0,1-.4.154H63.332a0.488,0.488,0,0,1-.379-0.154" transform="translate(0.004 0.008)" fill="#fff"/>
      <path class="word" d="M77.292,25.265a0.549,0.549,0,0,1-.142-0.39V9.4a0.589,0.589,0,0,1,.142-0.415,0.491,0.491,0,0,1,.379-0.154h5.356q3.579,0,5.166,1.6a6.729,6.729,0,0,1,1.636,4.822q0.022,0.688.023,1.848t-0.023,1.873a8.971,8.971,0,0,1-.723,3.661,4.347,4.347,0,0,1-2.121,2.1,9.017,9.017,0,0,1-3.84.688H77.671a0.484,0.484,0,0,1-.379-0.155m5.735-1.812a6.287,6.287,0,0,0,2.643-.463,2.821,2.821,0,0,0,1.421-1.445,7.16,7.16,0,0,0,.486-2.666q0.048-1.422.048-1.778,0-.378-0.048-1.753a4.956,4.956,0,0,0-1.127-3.475,4.809,4.809,0,0,0-3.543-1.1H79.376v12.68h3.651Z" transform="translate(0.004 0.008)" fill="#fff"/>
      <path class="word" d="M93.6,25.265a0.552,0.552,0,0,1-.143-0.391V9.374A0.554,0.554,0,0,1,93.6,8.983a0.491,0.491,0,0,1,.379-0.155H95.16a0.5,0.5,0,0,1,.542.543v15.5a0.527,0.527,0,0,1-.545.545H93.972a0.487,0.487,0,0,1-.379-0.154" transform="translate(0.004 0.008)" fill="#fff"/>
      <path class="word" d="M98.887,25.277a0.457,0.457,0,0,1-.142-0.331l0.048-.261L104.67,9.351a0.738,0.738,0,0,1,.758-0.522h1.522a0.738,0.738,0,0,1,.758.522l5.878,15.334,0.047,0.261a0.437,0.437,0,0,1-.154.331,0.5,0.5,0,0,1-.344.142h-1.113a0.578,0.578,0,0,1-.391-0.131,0.616,0.616,0,0,1-.2-0.272L110.1,21.6H102.25l-1.3,3.412a0.621,0.621,0,0,1-.592.4H99.22a0.457,0.457,0,0,1-.332-0.142m4.053-5.64h6.493l-3.246-8.508Z" transform="translate(0.004 0.008)" fill="#fff"/>
      <path class="word" d="M117.13,24.8L114.072,9.562,114.026,9.3a0.485,0.485,0,0,1,.473-0.475h1.161a0.494,0.494,0,0,1,.57.4L118.67,21.6l2.631-8.531a0.686,0.686,0,0,1,.734-0.569h0.83a0.744,0.744,0,0,1,.758.57l2.608,8.53,2.44-12.371a0.509,0.509,0,0,1,.593-0.4H130.4a0.485,0.485,0,0,1,.474.475,1.4,1.4,0,0,1-.023.261L127.771,24.8a0.68,0.68,0,0,1-.735.616h-0.853a0.76,0.76,0,0,1-.782-0.593L122.462,15.7,119.5,24.826a0.726,0.726,0,0,1-.759.593h-0.877a0.7,0.7,0,0,1-.734-0.619" transform="translate(0.004 0.008)" fill="#fff"/>
      <path class="word" d="M134.95,24.033a6.793,6.793,0,0,1-1.776-4.893q-0.024-.711-0.024-2.015t0.024-1.99a6.718,6.718,0,0,1,1.837-4.882,7.476,7.476,0,0,1,9.392,0,6.742,6.742,0,0,1,1.825,4.882q0.048,1.374.047,1.99,0,0.593-.047,2.015a6.827,6.827,0,0,1-1.765,4.893,7.778,7.778,0,0,1-9.513,0m7.8-1.493a5.122,5.122,0,0,0,1.232-3.519q0.048-1.422.048-1.9,0-.521-0.048-1.9A5.174,5.174,0,0,0,142.75,11.7a4.56,4.56,0,0,0-6.08,0,5.057,5.057,0,0,0-1.22,3.529q-0.022.687-.024,1.9,0,1.185.024,1.9a5.041,5.041,0,0,0,1.208,3.511,4.612,4.612,0,0,0,6.092,0" transform="translate(0.004 0.008)" fill="#fff"/>
      <path class="word" d="M149.929,25.265a0.55,0.55,0,0,1-.142-0.391V9.4a0.587,0.587,0,0,1,.142-0.415,0.489,0.489,0,0,1,.38-0.154h5.782a6.437,6.437,0,0,1,4.23,1.268,4.515,4.515,0,0,1,1.529,3.684,4.7,4.7,0,0,1-.9,2.963,4.645,4.645,0,0,1-2.513,1.611l3.65,6.328a0.586,0.586,0,0,1,.072.261,0.485,0.485,0,0,1-.475.473h-1.043a0.841,0.841,0,0,1-.557-0.166,1.538,1.538,0,0,1-.367-0.473l-3.485-6.068h-4.217v6.162a0.51,0.51,0,0,1-.166.391,0.568,0.568,0,0,1-.4.154h-1.14a0.486,0.486,0,0,1-.38-0.154m6.067-8.5q3.579,0,3.578-3.01T156,10.745h-3.981v6.02H156Z" transform="translate(0.004 0.008)" fill="#fff"/>
      <path class="word" d="M164.416,25.277a0.454,0.454,0,0,1-.143-0.331,0.551,0.551,0,0,1,.1-0.309l5.427-7.654-5.166-7.371a0.538,0.538,0,0,1-.1-0.308,0.485,0.485,0,0,1,.474-0.474h1.35a0.784,0.784,0,0,1,.617.4l4.242,6,4.195-6a0.7,0.7,0,0,1,.616-0.4h1.256a0.459,0.459,0,0,1,.332.142,0.454,0.454,0,0,1,.142.332,0.538,0.538,0,0,1-.1.308l-5.119,7.394,5.428,7.631a0.558,0.558,0,0,1,.094.309,0.437,0.437,0,0,1-.154.331,0.493,0.493,0,0,1-.344.143h-1.35a0.742,0.742,0,0,1-.616-0.379l-4.48-6.257-4.455,6.257a0.744,0.744,0,0,1-.616.379h-1.3a0.454,0.454,0,0,1-.331-0.143" transform="translate(0.004 0.008)" fill="#fff"/>
      <path class="circle" d="M24.636,8.845h-2.61a1.179,1.179,0,0,0-.9.421c-0.028.033-.054,0.068-0.079,0.1L9.375,24.86h0a0.34,0.34,0,0,0-.068.206,0.344,0.344,0,0,0,.344.344h2.608a1.182,1.182,0,0,0,.919-0.438c0.018-.023.035-0.045,0.051-0.068L24.9,9.413a0.261,0.261,0,0,0,.034-0.046,0.336,0.336,0,0,0,.054-0.183,0.345,0.345,0,0,0-.345-0.345h0" transform="translate(0.004 0.008)" fill="#fff"/>
      <path class="circle" d="M28.409,4.255a0.281,0.281,0,0,0-.038-0.039C28.346,4.193,28.32,4.17,28.3,4.151A17.186,17.186,0,0,0,12.8.536,16.747,16.747,0,0,0,.707,12.2,17.2,17.2,0,0,0,2.642,26.26a1.168,1.168,0,0,0,1.018.619,1.091,1.091,0,0,0,.859-0.407C4.746,26.214,17.343,9.411,17.343,9.411s0.013-.016.019-0.025a0.345,0.345,0,0,0-.284-0.539H14.925a3.164,3.164,0,0,0-.766.042l-0.074.022a1.351,1.351,0,0,0-.615.483h0c-0.129.172-9.422,12.542-9.48,12.618l-0.111.148c-0.015.019-.029,0.038-0.043,0.058h0a0.161,0.161,0,0,1-.115.05,0.2,0.2,0,0,1-.175-0.17c-1.166-4.08-1.053-6.353-.065-9.506a13.931,13.931,0,0,1,9.361-9.2A14.707,14.707,0,0,1,26.706,6.365l0.022,0.02a0.342,0.342,0,0,0,.216.076A0.347,0.347,0,0,0,27.2,6.344a0.336,0.336,0,0,0,.035-0.049l1.18-1.6V4.688l0.017-.026a0.345,0.345,0,0,0,.052-0.182,0.34,0.34,0,0,0-.081-0.222" transform="translate(0.004 0.008)" fill="#fff"/>
      <path class="circle" d="M5.885,30a0.464,0.464,0,0,0,.038.039C5.948,30.057,5.974,30.079,6,30.1a17.192,17.192,0,0,0,15.5,3.615,16.75,16.75,0,0,0,12.09-11.663A17.194,17.194,0,0,0,31.65,7.992a1.168,1.168,0,0,0-1.018-.62,1.14,1.14,0,0,0-.875.407C29.73,7.812,16.95,24.84,16.95,24.84l-0.019.026a0.339,0.339,0,0,0-.06.193,0.344,0.344,0,0,0,.343.345h2.153a3.167,3.167,0,0,0,.766-0.042c0.024-.007.049-0.013,0.073-0.021a1.348,1.348,0,0,0,.615-0.484h0L30.3,12.239l0.111-.147,0.044-.059a0.137,0.137,0,0,1,.116-0.051,0.2,0.2,0,0,1,.174.17,16.449,16.449,0,0,1,.065,9.507,14.288,14.288,0,0,1-23.223,6.23l-0.022-.02a0.347,0.347,0,0,0-.475.042,0.423,0.423,0,0,0-.035.048l-1.179,1.6-0.006.007-0.017.026a0.339,0.339,0,0,0-.052.181A0.345,0.345,0,0,0,5.883,30" transform="translate(0.004 0.008)" fill="#fff"/>
    </g>
  </g>
</svg>
